<svg width="20" height="21" viewBox="0 0 20 21" fill="none" xmlns="http://www.w3.org/2000/svg">
<path d="M9.78009 1.39899C9.48719 1.1061 9.01232 1.1061 8.71943 1.39899C8.42653 1.69188 8.42653 2.16676 8.71943 2.45965L9.9391 3.67932H9.49976C5.35762 3.67932 1.99976 7.03719 1.99976 11.1793C1.99976 15.3215 5.35762 18.6793 9.49976 18.6793C13.6419 18.6793 16.9998 15.3215 16.9998 11.1793C16.9998 10.7651 16.664 10.4293 16.2498 10.4293C15.8355 10.4293 15.4998 10.7651 15.4998 11.1793C15.4998 14.493 12.8135 17.1793 9.49976 17.1793C6.18605 17.1793 3.49976 14.493 3.49976 11.1793C3.49976 7.88596 6.15316 5.21233 9.43879 5.17962L8.71943 5.89899C8.42653 6.19188 8.42653 6.66676 8.71943 6.95965C9.01232 7.25254 9.48719 7.25254 9.78009 6.95965L12.0301 4.70965C12.323 4.41676 12.323 3.94188 12.0301 3.64899L9.78009 1.39899ZM13.5199 7.63896C13.8183 7.9262 13.8274 8.40099 13.5401 8.69942L9.69015 12.6994C9.54876 12.8463 9.35366 12.9293 9.14978 12.9293C8.94589 12.9293 8.75079 12.8463 8.60941 12.6994L6.95938 10.985C6.67214 10.6866 6.68122 10.2118 6.97967 9.92457C7.27811 9.63733 7.75289 9.64641 8.04013 9.94485L9.14979 11.0978L12.4594 7.65922C12.7466 7.36079 13.2214 7.35171 13.5199 7.63896Z" fill="#AFAFAF"/>
</svg>
